# xmcd
# 
# Track frame offsets:
#     150
#     12951
#     27055
#     43427
#     59015
#     77480
#     95698
#     111369
#     131001
#     144631
#     159108
#     174487
#     188302
# 
# Disc length: 2682
# 
# Revision: 1
# Processed by: cddbd v1.5.2PL0 Copyright (c) Steve Scherf et al.
# Submitted via: BonkEnc v1.0.8
# 
DISCID=a70a780d
DTITLE=Toby Keith - Pull My Chain
DYEAR=2001
DGENRE=Country
TTITLE0=I'm Just Talkin' About Tonight
TTITLE1=I Wanna Talk About Me
TTITLE2=I Can't Take You Anywhere
TTITLE3=You Leave Me Weak
TTITLE4=Tryin' To Matter
TTITLE5=Pull My Chain
TTITLE6=The Sha La La Song
TTITLE7=Pick 'em Up And Lay'em Down
TTITLE8=Forever Hasn't Got Here Yet
TTITLE9=Yesterday's Rain
TTITLE10=My List
TTITLE11=You Didn't Have As Much To Lose
TTITLE12=Gimme 8 Seconds
EXTD=
EXTT0=
EXTT1=
EXTT2=
EXTT3=
EXTT4=
EXTT5=
EXTT6=
EXTT7=
EXTT8=
EXTT9=
EXTT10=
EXTT11=
EXTT12=
PLAYORDER=
